<svg xmlns="http://www.w3.org/2000/svg" data-name="Layer 1" viewBox="0 0 512 512"><path d="M213.964 203.01a7.5 7.5 0 0 0-12.94 7.586l6.518-3.709-6.49 3.758a7.5 7.5 0 1 0 12.981-7.516Zm13.912-65.08a7.465 7.465 0 0 0 3.751-1.011l.12-.07a7.5 7.5 0 1 0-7.587-12.94l3.71 6.519-3.759-6.491a7.501 7.501 0 0 0 3.765 13.992Zm3.953 82.9a7.5 7.5 0 1 0-7.685 12.882l.218.126a7.5 7.5 0 1 0 7.467-13.008Zm-24.337-41.994a7.5 7.5 0 0 0-15 0v.097a7.459 7.459 0 0 0 7.5 7.451 7.541 7.541 0 0 0 7.5-7.548Zm-3.79-21.348a7.562 7.562 0 1 0-2.668-10.47l-.127.218a7.523 7.523 0 0 0 2.796 10.252Zm108.306 13.64a7.541 7.541 0 0 0-7.5 7.549v.236a7.5 7.5 0 0 0 15 0v-.333a7.458 7.458 0 0 0-7.5-7.452Zm-56.185-40.758.21-.001a7.5 7.5 0 0 0-.168-14.999h-.021l-.02 7.5v-7.5a7.5 7.5 0 0 0 0 15Zm194.319-16.462c-36.76-40.478-87.553-67.846-146.883-79.145-2.64-.505-5.354-.97-8.106-1.401a39.656 39.656 0 0 0-78.307 0c-2.75.431-5.463.896-8.1 1.4C89.952 57.396 3.73 161.504 3.73 282.31v87.744a7.452 7.452 0 0 0 .071 1.083l.005.032a7.408 7.408 0 0 0 .195.926l.025.092a7.537 7.537 0 0 0 .33.937l50.759 115.77a38.864 38.864 0 0 0 47.828 21.037l78.033-26.573a233.931 233.931 0 0 1 150.048 0l78.033 26.573a38.042 38.042 0 0 0 12.282 2.033 38.907 38.907 0 0 0 35.547-23.07l50.758-115.77a7.527 7.527 0 0 0 .333-.947l.018-.066a7.454 7.454 0 0 0 .202-.959v-.007a7.452 7.452 0 0 0 .073-1.107V267.31c0-58.496-20.101-111.542-58.128-153.402ZM256 15a24.617 24.617 0 1 1-24.653 24.617A24.663 24.663 0 0 1 256 15Zm187.147 467.87a23.771 23.771 0 0 1-29.254 12.862l-78.033-26.573a249.018 249.018 0 0 0-159.72 0l-78.032 26.573a23.77 23.77 0 0 1-29.256-12.862l-48.28-110.117C113.02 309.482 207.443 299.91 256 299.91c110.6 0 193.29 44.102 235.426 72.846Zm50.123-126.92c-45.383-29.666-128.243-71.04-237.27-71.04-49.146 0-143.636 9.455-237.27 71.013V282.31c0-113.614 81.094-211.525 192.829-232.813 1.895-.363 3.835-.703 5.799-1.026a39.65 39.65 0 0 0 77.284 0c1.964.323 3.906.663 5.804 1.027 56.114 10.686 104.037 36.445 138.592 74.495 35.479 39.054 54.232 88.612 54.232 143.317ZM304.453 158.227a7.502 7.502 0 0 0 6.56-11.124c-.04-.074-.131-.231-.174-.304a7.501 7.501 0 1 0-6.386 11.428Zm3.856 42.09a7.501 7.501 0 0 0-10.264 2.678l-.118.206a7.512 7.512 0 0 0 6.537 11.205 7.448 7.448 0 0 0 6.513-3.81l-6.461-3.808 6.47 3.793a7.5 7.5 0 0 0-2.677-10.263Zm-52.348 26.944a7.5 7.5 0 1 0 .039 15h.06a7.458 7.458 0 0 0 7.45-7.5 7.541 7.541 0 0 0-7.549-7.5Zm24.36-6.517c-.062.034-.208.12-.268.156a7.57 7.57 0 1 0 .267-.156Zm4.272 7.511-.564-.993.612 1.074Zm-4.39-91.436a7.5 7.5 0 0 0 7.418-13.037l-.085-.048a7.459 7.459 0 0 0-10.185 2.834 7.542 7.542 0 0 0 2.852 10.251Z"/></svg>