<svg xmlns="http://www.w3.org/2000/svg" viewBox="0 0 64 64"><path d="M56.9 34.416 44.11 32.078l-1.165-.48.335-.785a1 1 0 0 0-.527-1.313l-4.6-1.962a.999.999 0 0 0-1.312.528l-.37.868-1.332-.548.378-.885a1 1 0 0 0-.528-1.313l-4.598-1.961a.998.998 0 0 0-1.313.527l-.248.58-.741-.687 1.89-9.45A1 1 0 0 0 29 14H7a1 1 0 0 0-1 1v9.748a22.074 22.074 0 0 0 .132 21.749A1 1 0 0 0 7 47h37.232a.987.987 0 0 0 .126-.008l14.019-1.778A3.005 3.005 0 0 0 61 42.238v-2.903a5 5 0 0 0-4.1-4.919Zm2.081 4.705-14.526 1.843a8.292 8.292 0 0 1 2.034-6.418l10.051 1.838a2.991 2.991 0 0 1 2.441 2.737Zm-20.691-9.35 2.76 1.177-1.69 3.958-2.76-1.177Zm-7.763-3.313 2.76 1.178-1.69 3.958-2.76-1.177Zm-3.393 5.406 4.598 1.962a1 1 0 0 0 1.313-.527l1.31-3.073 1.332.548-1.318 3.09a1 1 0 0 0 .527 1.312l4.6 1.962a1 1 0 0 0 1.312-.527l1.354-3.173 1.286.53a1.038 1.038 0 0 0 .2.059l.653.12A10.073 10.073 0 0 0 42.445 41h-25.79c-.428-6.122-3.832-10.335-10.125-12.546A22.574 22.574 0 0 1 7.613 26h18.995l1.39 1.288-1.392 3.264a1 1 0 0 0 .527 1.312ZM27.78 16l-1.6 8H8v-8ZM5.912 30.354c5.456 1.929 8.333 5.42 8.744 10.646H5.972a19.792 19.792 0 0 1-.06-10.646ZM58.126 43.23 44.169 45H7.589a20.469 20.469 0 0 1-.93-2h37.573a.987.987 0 0 0 .126-.008L59 41.135v1.103a1.002 1.002 0 0 1-.874.992Z" data-name="Layer 2"/></svg>